<svg version="1.1" xmlns="http://www.w3.org/2000/svg" xmlns:xlink="http://www.w3.org/1999/xlink" x="0px" y="0px" viewBox="0 0 1000 1000"
	 enable-background="new 0 0 1000 1000" xml:space="preserve">
<g>
	<path fill="#99AF74" d="M1000,500c0,276.1-223.9,500-500,500C223.9,1000,0,776.1,0,500C0,223.9,223.9,0,500,0
		C776.1,0,1000,223.9,1000,500"/>
	<path class="foreground" fill="#738357" d="M503.9,272.1c-6.6,0-11.9-5.4-11.9-11.9V204c0-6.6,5.4-11.9,11.9-11.9c6.6,0,11.9,5.3,11.9,11.9v56.2
		C515.8,266.7,510.5,272.1,503.9,272.1"/>
	<path class="foreground" fill="#738357" d="M771.9,556.4l-111-37.5v151.5c0,6.5-5.2,11.6-11.7,11.6H350.8c-6.5,0-11.7-5.2-11.7-11.6V518.8l-111,37.5
		c-4.8,1.6-8,6.1-8,11.1v175.4c0,6.5,5.2,11.7,11.7,11.7h266c0.7,0,1.4-0.3,2.2-0.4c0.7,0.1,1.4,0.4,2.2,0.4h266
		c6.5,0,11.7-5.2,11.7-11.7V567.4C779.9,562.4,776.7,558,771.9,556.4"/>
	<path class="foreground" fill="#738357" d="M660.9,486.7l-153.2-60.6c-2.8-1.1-6-1.1-8.8,0l-152.2,60.6c-4.5,1.8-7.5,6.2-7.5,11.1v25.7v155
		c0,6.6,5.3,11.9,11.9,11.9h305.4c6.6,0,11.9-5.4,11.9-11.9v-155v-25.7C668.5,492.9,665.5,488.5,660.9,486.7 M412.7,649.6
		c0,8.2-6.6,14.8-14.7,14.8c-8.2,0-14.7-6.6-14.7-14.8V510.7c0-8.2,6.6-14.7,14.7-14.7c8.2,0,14.7,6.6,14.7,14.7V649.6z
		 M518.6,649.6c0,8.2-6.6,14.8-14.7,14.8c-8.2,0-14.8-6.6-14.8-14.8V510.7c0-8.2,6.6-14.7,14.8-14.7c8.2,0,14.7,6.6,14.7,14.7V649.6
		z M624.5,649.6c0,8.2-6.6,14.8-14.8,14.8c-8.1,0-14.7-6.6-14.7-14.8V510.7c0-8.2,6.6-14.7,14.7-14.7c8.2,0,14.8,6.6,14.8,14.7
		V649.6z"/>
	<path class="foreground" fill="#738357" d="M625,361c0-62.2-52.4-112.8-116.7-112.8h-8.8c-64.3,0-116.7,50.6-116.7,112.8v26.5H625V361z"/>
	<path class="foreground" fill="#738357" d="M382.8,469.7c0,6.6,5.3,11.9,11.9,11.9c6.6,0,11.9-5.3,11.9-11.9h194.4c0,6.6,5.3,11.9,11.9,11.9
		c6.6,0,11.9-5.3,11.9-11.9v-58.3H382.8V469.7z"/>
</g>
</svg>
