<svg version="1.1" xmlns="http://www.w3.org/2000/svg" xmlns:xlink="http://www.w3.org/1999/xlink" x="0px" y="0px" viewBox="0 0 1000 1000"
	 enable-background="new 0 0 1000 1000" xml:space="preserve">
<g>
	<path fill="#659DAD" d="M1000,500c0,276.1-223.9,500-500,500C223.9,1000,0,776.1,0,500C0,223.9,223.9,0,500,0
		C776.1,0,1000,223.9,1000,500"/>
	<path class="foreground" fill="#4C7682" d="M783.4,502H665.3v-27.5c-4.7-1.5-9.2-3.7-13.5-6.5L500,362.9l-151.8,105c-4.3,2.9-8.8,5.1-13.6,6.5V502
		H216.6c-6.5,0-11.8,5.3-11.8,11.8v248c0,6.5,5.3,11.8,11.8,11.8h224.4V655.6c0-6.5,5.3-11.8,11.8-11.8h94.5
		c6.5,0,11.8,5.3,11.8,11.8v118.1h224.4c6.5,0,11.8-5.3,11.8-11.8v-248C795.2,507.3,789.9,502,783.4,502 M393.7,702.8
		c0,6.5-5.3,11.8-11.8,11.8h-94.5c-6.5,0-11.8-5.3-11.8-11.8v-47.2c0-6.5,5.3-11.8,11.8-11.8h94.5c6.5,0,11.8,5.3,11.8,11.8V702.8z
		 M393.7,608.3c0,6.5-5.3,11.8-11.8,11.8h-94.5c-6.5,0-11.8-5.3-11.8-11.8v-47.3c0-6.5,5.3-11.8,11.8-11.8h94.5
		c6.5,0,11.8,5.3,11.8,11.8V608.3z M559,549.3c0,6.5-5.3,11.8-11.8,11.8h-94.5c-6.5,0-11.8-5.3-11.8-11.8V502
		c0-6.5,5.3-11.8,11.8-11.8h94.5c6.5,0,11.8,5.3,11.8,11.8V549.3z M724.4,702.8c0,6.5-5.3,11.8-11.8,11.8h-94.5
		c-6.5,0-11.8-5.3-11.8-11.8v-47.2c0-6.5,5.3-11.8,11.8-11.8h94.5c6.5,0,11.8,5.3,11.8,11.8V702.8z M724.4,608.3
		c0,6.5-5.3,11.8-11.8,11.8h-94.5c-6.5,0-11.8-5.3-11.8-11.8v-47.3c0-6.5,5.3-11.8,11.8-11.8h94.5c6.5,0,11.8,5.3,11.8,11.8V608.3z"
		/>
	<path class="foreground" fill="#4C7682" d="M570.9,254c6.5,0,11.8-5.3,11.8-11.8V195c0-6.5-5.3-11.8-11.8-11.8H500c-6.5,0-11.8,5.3-11.8,11.8v84.3
		c-0.5,0.3-1,0.4-1.4,0.7L305.4,406.2c-7.2,5-11.1,13-11.1,21.2c0,5.1,1.5,10.4,4.8,14.9c8.1,11.4,24.1,14.1,35.7,6.2L500,334.2
		l165.2,114.3c4.5,3.1,9.6,4.6,14.7,4.6c8.1,0,16-3.7,21-10.8c8.4-11.7,5.5-28.1-6.3-36.2L513.2,280c-0.4-0.3-1-0.4-1.4-0.7V254
		H570.9z"/>
</g>
</svg>
