<?xml version="1.0" encoding="utf-8"?>
<!-- Generator: Adobe Illustrator 18.0.0, SVG Export Plug-In . SVG Version: 6.00 Build 0)  -->
<!DOCTYPE svg PUBLIC "-//W3C//DTD SVG 1.1//EN" "http://www.w3.org/Graphics/SVG/1.1/DTD/svg11.dtd" [
	<!ENTITY ns_extend "http://ns.adobe.com/Extensibility/1.0/">
	<!ENTITY ns_ai "http://ns.adobe.com/AdobeIllustrator/10.0/">
	<!ENTITY ns_graphs "http://ns.adobe.com/Graphs/1.0/">
	<!ENTITY ns_vars "http://ns.adobe.com/Variables/1.0/">
	<!ENTITY ns_imrep "http://ns.adobe.com/ImageReplacement/1.0/">
	<!ENTITY ns_sfw "http://ns.adobe.com/SaveForWeb/1.0/">
	<!ENTITY ns_custom "http://ns.adobe.com/GenericCustomNamespace/1.0/">
	<!ENTITY ns_adobe_xpath "http://ns.adobe.com/XPath/1.0/">
]>
<svg version="1.1" id="Layer_1" xmlns:x="&ns_extend;" xmlns:i="&ns_ai;" xmlns:graph="&ns_graphs;"
	 xmlns="http://www.w3.org/2000/svg" xmlns:xlink="http://www.w3.org/1999/xlink" x="0px" y="0px" viewBox="0 0 1417.3 549.9"
	 enable-background="new 0 0 1417.3 549.9" xml:space="preserve">
<metadata>
	<sfw  xmlns="&ns_sfw;">
		<slices></slices>
		<sliceSourceBounds  height="548.7" width="1417.3" y="-549.3" x="0" bottomLeftOrigin="true"></sliceSourceBounds>
	</sfw>
</metadata>
<g>
	<path fill="#00438C" d="M574.4,131.4l-1.2,12.3c-2.4-1-4.7-1.7-7-2.3c-1.1-0.3-2.2-0.5-3.3-0.6s-2.1-0.2-3.2-0.2
		c-3.2,0-5.7,0.5-7.5,1.6c-1.8,1-2.7,2.4-2.7,4.2c0,1.2,0.5,2.3,1.4,3.3c0.9,0.9,2.3,1.7,4.2,2.4l2.6,0.8c6.8,2.2,11.3,4.1,13.6,5.8
		c2.1,1.6,3.6,3.4,4.6,5.5c1,2.1,1.5,4.6,1.5,7.3c0,6.5-2.2,11.5-6.5,15c-4.4,3.5-10.7,5.2-18.9,5.2c-2.9,0-5.9-0.2-8.9-0.6
		c-3-0.4-6-1.1-9-1.9l1.3-13.3c2.8,1.3,5.5,2.3,8.1,2.9c1.3,0.3,2.5,0.5,3.8,0.7c1.3,0.2,2.5,0.2,3.7,0.2c3.1,0,5.6-0.6,7.4-1.8
		c1.8-1.2,2.7-2.8,2.7-4.8c0-2.5-2.9-4.7-8.7-6.8l-3.2-1.1c-5.6-2-9.7-4.4-12.1-7.1c-2.5-2.7-3.7-6.2-3.7-10.4
		c0-5.9,2.1-10.5,6.4-13.8c4.3-3.3,10.4-4.9,18.4-4.9c3,0,5.8,0.2,8.5,0.6c1.4,0.2,2.7,0.4,4,0.6C571.8,130.7,573.1,131,574.4,131.4
		 M615.1,142.8h14.8v47.7h15.9v-47.7h14.8v-11.9h-45.4V142.8z M730.2,166.5H715l7.7-22.3L730.2,166.5z M690.9,190.5h15.7l4.4-12.6
		H734l4.2,12.6h17l-22.6-59.6h-19.2L690.9,190.5z M792.1,190.5h14.3V159c0-1,0-2.3-0.1-3.8c-0.1-1.5-0.2-2.8-0.3-4.1
		c-0.2-2.1-0.4-3.8-0.5-5.1c-0.2-1.3-0.4-2.9-0.7-4.7c0.7,2.6,1.3,4.8,1.9,6.5c0.8,2.1,1.5,3.9,2.3,5.5l17.9,37.1h19.7v-59.6h-14.3
		v33.8c0,1.9,0.1,4.1,0.4,6.6c0.2,2.5,0.6,5.3,1.1,8.2c-0.5-1.4-0.9-2.9-1.4-4.3c-0.6-2-1-3.1-1.2-3.5c-0.8-2.3-1.5-4-2.1-5
		l-17.3-35.7h-19.8V190.5z M914.1,165.5c3.1,0,5.3,0.6,6.9,1.7c1.5,1.2,2.3,2.9,2.3,5.1c0,2.3-0.8,4.1-2.5,5.3
		c-1.7,1.2-4.1,1.8-7.4,1.8h-6.3v-14H914.1z M912.7,141.6c3,0,5.4,0.5,6.9,1.6c1.6,1.1,2.3,2.7,2.3,4.8c0,2.3-0.8,4.1-2.5,5.2
		c-1.7,1.1-4.2,1.7-7.5,1.7h-4.8v-13.3H912.7z M891.6,190.5h23.2c8.3,0,14.5-1.4,18.5-4c4-2.7,6-6.9,6-12.4c0-3.8-1.1-6.9-3.3-9.4
		c-2.2-2.5-5.3-4.1-9.4-4.8c3.6-1,6.4-2.6,8.3-4.9c1.9-2.3,2.9-5.1,2.9-8.6c0-5.1-1.8-9-5.5-11.6c-3.7-2.6-9.1-3.9-16.2-3.9h-24.4
		V190.5z M981.8,165.5c0,8.7,2.1,15.3,6.4,19.7c4.3,4.4,10.6,6.6,19,6.6c8.5,0,14.9-2.2,19.1-6.5c4.2-4.4,6.3-10.9,6.3-19.8v-34.7
		h-15.1v34.7c0,4.7-0.9,8.3-2.6,10.8c-1.8,2.5-4.3,3.7-7.7,3.7c-3.3,0-5.7-1.2-7.3-3.4c-1.5-2.3-2.3-6-2.3-11v-34.7h-15.9V165.5z
		 M1077.4,190.5h39.8v-11.8h-23.9v-47.8h-15.9V190.5z M474,125.5h15.9v-7.9H474V125.5z M474,190.5h15.9v-59.6H474V190.5z
		 M548.3,296.8c3.7,4.1,5.5,9.3,5.5,15.7c0,9.4-3.3,16.3-10,20.8c-6.7,4.5-17,6.8-30.9,6.8H474v-99.8h40.8c12,0,21.1,2.2,27.2,6.5
		c6.1,4.3,9.1,10.8,9.1,19.4c0,5.8-1.6,10.6-4.8,14.4c-3.2,3.8-7.8,6.5-13.9,8.2C539.3,290,544.6,292.6,548.3,296.8 M500,280.5h8.1
		c5.6,0,9.8-1,12.6-2.9s4.2-4.8,4.2-8.7c0-3.6-1.3-6.2-3.9-8c-2.6-1.8-6.5-2.7-11.6-2.7H500V280.5z M527.1,309.7
		c0-3.8-1.3-6.6-3.9-8.6c-2.6-1.9-6.4-2.9-11.5-2.9H500v23.4h10.5c5.4,0,9.5-1,12.3-3.1C525.6,316.5,527.1,313.5,527.1,309.7
		 M718.1,282.4l-19.9-42.1H668l35.8,62.7V340h26.6v-37.4l36.2-62.4H738L718.1,282.4z M849.6,218.1h-25.3v13.3h25.3V218.1z
		 M837.1,298.3c0,7.9-1.5,13.9-4.4,18c-2.9,4.1-7.2,6.1-12.9,6.1c-5.6,0-9.6-1.9-12.1-5.8c-2.5-3.8-3.8-10-3.8-18.4v-58.1h-26.6v58
		c0,14.6,3.6,25.6,10.7,33c7.2,7.4,17.7,11.1,31.8,11.1c14.3,0,24.9-3.7,32-11c7.1-7.3,10.6-18.3,10.6-33.1v-58h-25.3V298.3z
		 M815.4,218.1h-25.3v13.3h25.3V218.1z M632,298.3c0,7.9-1.5,13.9-4.4,18c-2.9,4.1-7.2,6.1-12.9,6.1c-5.6,0-9.6-1.9-12.1-5.8
		c-2.5-3.8-3.8-10-3.8-18.4v-58.1h-26.6v58c0,14.6,3.6,25.6,10.7,33c7.2,7.4,17.8,11.1,31.8,11.1c14.3,0,24.9-3.7,32-11
		c7.1-7.3,10.6-18.3,10.6-33.1v-58H632V298.3z M644.5,218.1h-25.3v13.3h25.3V218.1z M610.3,218.1h-25.3v13.3h25.3V218.1z
		 M974.3,240.2h-29.8l-30.9,43.1v-43.1h-26.6V340h26.6v-46.3l31.4,46.3h33.1l-40.4-53.9L974.3,240.2z M1106.1,298h40.3v-19h-40.3
		v-20.1h42.7v-18.7h-69.3V340h70.9v-19.3h-44.3V298z M1230.7,278.3h-31.1v-38.1h-26.6V340h26.6v-41.7h31.1V340h26.6v-99.8h-26.6
		V278.3z M1282.2,231.4h26.6v-13.3h-26.6V231.4z M1282.2,340h26.6v-99.8h-26.6V340z M1417.3,340h-27.7l-8.8-27.3
		c-1.4-4.4-3.3-7.4-5.7-9.1c-2.4-1.7-6.2-2.6-11.4-2.6h-3.9v39h-26v-99.8h39.7c13.3,0,23.1,2.1,29.4,6.4c6.4,4.3,9.5,10.8,9.5,19.6
		c0,6.4-1.7,11.7-5,15.8c-3.3,4.1-8.2,7-14.6,8.5c5.2,1.9,9.4,7.4,12.6,16.3L1417.3,340z M1386.4,270.9c0-4.5-1.6-7.8-4.8-9.9
		c-3.2-2.1-8.3-3.2-15.2-3.2h-6.6v25.6h9.3c5.8,0,10.1-1,13-3.1C1385,278.2,1386.4,275,1386.4,270.9 M1050.3,286.8
		c-3.7-2.9-11.3-6.1-22.7-9.8l-4.4-1.4c-3.1-1.1-5.5-2.4-7-4c-1.5-1.6-2.3-3.4-2.3-5.4c0-3,1.5-5.3,4.5-7c3-1.7,7.2-2.6,12.6-2.6
		c1.8,0,3.6,0.1,5.4,0.3c1.8,0.2,3.6,0.6,5.5,1c3.8,0.9,7.7,2.2,11.7,3.9l2-20.6c-2.2-0.7-4.4-1.2-6.5-1.6c-2.1-0.4-4.3-0.8-6.6-1.1
		c-4.4-0.6-9.1-0.9-14.2-0.9c-13.3,0-23.6,2.7-30.8,8.2c-7.2,5.4-10.8,13.1-10.8,23.1c0,7.1,2,12.9,6.1,17.4
		c4.1,4.5,10.9,8.5,20.3,11.9l5.4,1.9c9.7,3.4,14.6,7.2,14.6,11.3c0,3.4-1.5,6-4.6,8c-3.1,2-7.2,3-12.4,3c-2,0-4-0.1-6.2-0.4
		c-2.2-0.3-4.3-0.7-6.4-1.2c-4.4-1.1-8.9-2.7-13.6-4.9l-2.3,22.2c5,1.4,10,2.5,15.1,3.2c2.8,0.4,5.6,0.6,8.4,0.8l-1.1,11.2h25.3
		l1.3-13.4c5-1.4,9.3-3.5,12.8-6.2c7.3-5.9,10.9-14.3,10.9-25.2c0-4.6-0.8-8.7-2.5-12.3C1056.3,292.6,1053.7,289.5,1050.3,286.8
		 M496.5,424.5c3.1,0,5.3,0.6,6.9,1.7c1.5,1.2,2.3,2.9,2.3,5.1c0,2.3-0.8,4.1-2.5,5.3c-1.7,1.2-4.2,1.8-7.4,1.8h-6.3v-14H496.5z
		 M495.2,400.6c3.1,0,5.4,0.5,6.9,1.6c1.6,1.1,2.3,2.7,2.3,4.8c0,2.3-0.8,4-2.5,5.2c-1.7,1.1-4.2,1.7-7.5,1.7h-4.8v-13.3H495.2z
		 M474,449.5h23.2c8.3,0,14.5-1.3,18.5-4c4-2.7,6-6.8,6-12.4c0-3.8-1.1-6.9-3.3-9.4c-2.2-2.5-5.3-4.1-9.4-4.8c3.6-1,6.4-2.7,8.3-4.9
		c1.9-2.3,2.8-5.2,2.8-8.6c0-5.1-1.8-9-5.5-11.6c-3.7-2.6-9.1-3.9-16.3-3.9H474V449.5z M549.7,449.5h42.4V438h-26.5v-13.6h24.1V413
		h-24.1v-12h25.5v-11.2h-41.4V449.5z M622.8,449.5h39.9v-11.8h-24v-47.9h-15.9V449.5z M688.9,449.5h42.4V438h-26.5v-13.6h24.1V413
		h-24.1v-12h25.5v-11.2h-41.4V449.5z M782.2,401.3c5.9,0,10.4,1.6,13.6,4.7c3.2,3.1,4.8,7.6,4.8,13.3c0,5.8-1.5,10.3-4.6,13.5
		c-3.1,3.2-7.4,4.8-13,4.8h-6.9v-36.2H782.2z M760.2,449.5h18.9c3,0,5.8-0.1,8.3-0.2c2.5-0.2,4.7-0.4,6.5-0.7c3.7-0.6,6.7-1.6,9-2.9
		c4.8-2.8,8.3-6.3,10.6-10.6c2.3-4.3,3.4-9.5,3.4-15.7c0-5.6-1.1-10.5-3.3-14.7c-2.2-4.2-5.5-7.8-9.8-10.5c-2.3-1.4-5.3-2.5-9-3.2
		c-3.6-0.7-8.2-1-13.7-1h-20.9V449.5z M899,427.3v22.2h15.9v-22.3l21.7-37.3h-17.1L907.6,415l-11.9-25.2h-18.1L899,427.3z
		 M958.7,449.5h42.4V438h-26.5v-13.6h24.1V413h-24.1v-12h25.5v-11.2h-41.4V449.5z M1065.7,389.4c-1.3-0.2-2.6-0.5-4-0.6
		c-2.6-0.4-5.5-0.5-8.5-0.5c-8,0-14.1,1.6-18.4,4.9c-4.3,3.3-6.4,7.9-6.4,13.8c0,4.2,1.2,7.7,3.7,10.4c2.5,2.7,6.5,5.1,12.1,7.1
		l3.2,1.2c5.8,2,8.7,4.3,8.7,6.8c0,2-0.9,3.6-2.7,4.8c-1.8,1.2-4.3,1.8-7.4,1.8c-1.2,0-2.4-0.1-3.7-0.3c-1.3-0.2-2.6-0.4-3.8-0.7
		c-2.6-0.6-5.3-1.6-8.1-2.9l-1.3,13.3c3,0.8,6,1.5,9,1.9c3,0.4,6,0.6,8.9,0.6c8.3,0,14.6-1.7,19-5.2c4.4-3.5,6.5-8.5,6.5-15
		c0-2.8-0.5-5.2-1.5-7.4c-1-2.1-2.5-4-4.6-5.5c-2.2-1.7-6.8-3.7-13.6-5.8l-2.7-0.8c-1.9-0.6-3.3-1.4-4.2-2.4c-0.9-0.9-1.4-2-1.4-3.3
		c0-1.8,0.9-3.2,2.7-4.2c1.8-1,4.3-1.6,7.5-1.6c1.1,0,2.1,0.1,3.2,0.2c1.1,0.2,2.2,0.3,3.3,0.6c2.3,0.6,4.6,1.3,7,2.3l1.2-12.3
		C1068.3,390,1067,389.7,1065.7,389.4 M842,384.5h15.9v-7.9H842V384.5z M842,449.5h15.9v-59.7H842V449.5z M1100.2,384.5h15.9v-7.9
		h-15.9V384.5z M1100.2,449.5h15.9v-59.7h-15.9V449.5z M93.4,366.8v-15.3H78.1v15.3H62.8v-15.3H47.5v15.3H32.2v-15.3H16.9v15.3
		c0,98,77.2,178,174.2,182.5v-76.6C136.5,468.4,93.4,422.7,93.4,366.8 M367,351.6h15.3v15.3c0,98-77.2,178-174.2,182.5v-76.6
		c54.7-4.3,97.7-50.1,97.7-105.9v-15.3h15.3v15.3h15.3v-15.3h15.3v15.3H367V351.6z M110.4,281.4H17.3c5.1-21,24-36.5,46.5-36.5
		C86.4,244.8,105.3,260.4,110.4,281.4 M288.9,281.4c5.1-21,24-36.5,46.6-36.5c22.5,0,41.4,15.6,46.5,36.5H288.9z M110.4,339H0
		c6-24.9,28.5-43.3,55.2-43.3C81.9,295.6,104.3,314.1,110.4,339 M344.1,295.6c26.7,0,49.1,18.5,55.2,43.3H288.9
		C294.9,314.1,317.3,295.6,344.1,295.6 M288.8,368L288.8,368l0-137.2l12.7-12.7v-12.7h-12.7V154l-12.7-76.5L263.4,154v51.4h-12.7
		h-12.7v-51.5l12.7-12.7v-12.7h-12.7V77.1L225.1,0.6l-12.7,76.5v51.4h-12.7h-12.7V77.1L174.1,0.6l-12.7,76.5v51.4h-12.7v12.7
		l12.7,12.7v51.5h-12.7h-12.7V154l-12.7-76.5L110.4,154v51.4H97.7v12.7l12.7,12.7v136.1c0,49.3,39.9,89.2,89.2,89.2
		C248.5,456.1,288.2,416.7,288.8,368 M272.2,380.9H224l24.1-41.8L272.2,380.9z M237.9,230.8l12.7-12.7l12.7,12.7v73.7
		c-7.3-7.5-15.9-13.7-25.5-18.2V230.8z M223.8,297.2l24.1,41.8h-48.2L223.8,297.2z M186.9,153.9l12.7-12.7l12.7,12.7v51.5h-12.7
		h-12.7V153.9z M186.9,230.8l12.7-12.7l12.7,12.7v47.8c-4.2-0.6-8.4-0.9-12.7-0.9c-4.3,0-8.6,0.3-12.7,0.9V230.8z M175.4,297.2
		l24.1,41.8h-48.2L175.4,297.2z M135.9,230.8l12.7-12.7l12.7,12.7v55.5c-9.6,4.5-18.2,10.7-25.5,18.2V230.8z M127.1,380.9l24.1-41.8
		l24.1,41.8H127.1z M151.3,422.9l24.1-41.8l24.1,41.8H151.3z M175.5,380.9l24.1-41.8l24.1,41.8H175.5z M199.7,422.9l24.1-41.8
		l24.1,41.8H199.7z"/>
</g>
</svg>
