<?xml version="1.0" encoding="utf-8"?>
<!-- Generator: Adobe Illustrator 18.0.0, SVG Export Plug-In . SVG Version: 6.00 Build 0)  -->
<!DOCTYPE svg PUBLIC "-//W3C//DTD SVG 1.1//EN" "http://www.w3.org/Graphics/SVG/1.1/DTD/svg11.dtd" [
	<!ENTITY ns_extend "http://ns.adobe.com/Extensibility/1.0/">
	<!ENTITY ns_ai "http://ns.adobe.com/AdobeIllustrator/10.0/">
	<!ENTITY ns_graphs "http://ns.adobe.com/Graphs/1.0/">
	<!ENTITY ns_vars "http://ns.adobe.com/Variables/1.0/">
	<!ENTITY ns_imrep "http://ns.adobe.com/ImageReplacement/1.0/">
	<!ENTITY ns_sfw "http://ns.adobe.com/SaveForWeb/1.0/">
	<!ENTITY ns_custom "http://ns.adobe.com/GenericCustomNamespace/1.0/">
	<!ENTITY ns_adobe_xpath "http://ns.adobe.com/XPath/1.0/">
]>
<svg version="1.1" id="Layer_1" xmlns:x="&ns_extend;" xmlns:i="&ns_ai;" xmlns:graph="&ns_graphs;"
	 xmlns="http://www.w3.org/2000/svg" xmlns:xlink="http://www.w3.org/1999/xlink" x="0px" y="0px" viewBox="0 0 1417.3 405.4"
	 enable-background="new 0 0 1417.3 405.4" xml:space="preserve">
<metadata>
	<sfw  xmlns="&ns_sfw;">
		<slices></slices>
		<sliceSourceBounds  height="404.2" width="1417.3" x="0" y="-405.4" bottomLeftOrigin="true"></sliceSourceBounds>
	</sfw>
</metadata>
<g>
	<path fill="#D50057" d="M997.9,229.9c-5.8-8.1-16.4-13.7-28.7-13.7c-13.3,0-28.7,7.3-28.7,23.9c0,16,13.5,20.3,30.1,25.7
		c19.7,6.2,43.2,13.7,43.2,43c0,30.5-24.7,44.6-50.9,44.6c-18.5,0-37.2-7.3-48.4-21.4l16-13.5c6.9,10.2,19.3,17.2,32.8,17.2
		c13.7,0,29.5-7.7,29.5-25.1c0-17.9-16.2-22.6-34.9-28.4c-18.7-5.8-38.2-14.3-38.2-41.3c0-29.3,26.2-41.9,50.5-41.9
		c17,0,33,6.6,42.1,16.8L997.9,229.9z"/>
	<path fill="#D50057" d="M1130.5,306.3h-78.1c0.6,16.8,14.7,29.9,32,29.9c13.3,0,23-6.6,28.7-14.9l13.7,11
		c-10.6,13.7-24.9,20.1-42.4,20.1c-29.9,0-51.9-20.8-51.9-51.7c0-30.7,22-52.1,50.9-52.1c29.1,0,47.3,19.7,47.3,51.1
		C1130.7,301.7,1130.7,304,1130.5,306.3 M1111,291.8c-0.4-15.6-9.6-27.8-27.6-27.8c-16.8,0-29.7,12.5-30.9,27.8H1111z"/>
	<path fill="#D50057" d="M1172.5,251.3c0.4,5,0.8,12,0.8,16.2h0.6c4.8-10.6,17.9-18.9,32-18.9c25.3,0,36.7,18.1,36.7,40.1v61h-19.5
		v-54.6c0-16-4.4-30.1-22.4-30.1c-15.4,0-26.4,12.9-26.4,32.4v52.3h-19.5v-77.2c0-5.2-0.2-14.7-0.8-21.2H1172.5z"/>
	<path fill="#D50057" d="M1285.7,228.2c-7.1,0-12.9-5.6-12.9-12.5c0-7.1,5.8-12.7,12.9-12.7c7.1,0,13.1,5.4,13.1,12.7
		C1298.8,222.8,1292.8,228.2,1285.7,228.2 M1295.5,349.7h-19.5v-98.4h19.5V349.7z"/>
	<path fill="#D50057" d="M1347.1,251.3c0.4,5,0.8,12,0.8,16.2h0.6c4.8-10.6,17.9-18.9,32-18.9c25.3,0,36.7,18.1,36.7,40.1v61h-19.5
		v-54.6c0-16-4.4-30.1-22.4-30.1c-15.4,0-26.4,12.9-26.4,32.4v52.3h-19.5v-77.2c0-5.2-0.2-14.7-0.8-21.2H1347.1z"/>
	<path fill="#D50057" d="M326.1,186.7c-7.1,0-12.9-5.6-12.9-12.5c0-7.1,5.8-12.7,12.9-12.7c7.1,0,13.1,5.4,13.1,12.7
		C339.2,181.3,333.2,186.7,326.1,186.7 M336.1,349.7h-20.6v-147h20.6V349.7z"/>
	<path fill="#D50057" d="M423.9,276.2c-4.4-7.1-12.9-12.3-22.8-12.3c-8.9,0-18.3,3.5-18.3,12.9c0,8.3,7.5,11.4,22.4,14.7
		c18.7,4.2,33,11.8,33,29.1c0,23.3-19.3,31.8-39.2,31.8c-14.9,0-30.3-5.8-39.7-17.6l13.9-11.8c5.2,7.7,15.2,13.7,26.2,13.7
		c9.8,0,19.5-3.5,19.5-14.3c0-9.1-8.9-12.5-25.7-16.4c-13.1-3.1-28.7-8.7-28.7-27.2c0-21.2,18.5-30.1,37.2-30.1
		c13.9,0,28.7,5.6,35.7,16.2L423.9,276.2z"/>
	<path fill="#D50057" d="M514.1,267.3H488v51.3c0,11.8,4.2,16.6,13.9,16.6c3.5,0,8.1-0.8,11.4-2.5l0.6,16
		c-4.6,1.7-10.6,2.7-16.6,2.7c-18.5,0-28.7-10.4-28.7-30.7v-53.4h-18.9v-16h18.9v-28.2H488v28.2h26.2V267.3z"/>
	<path fill="#D50057" d="M544.2,228.2c-7.1,0-12.9-5.6-12.9-12.5c0-7.1,5.8-12.7,12.9-12.7c7.1,0,13.1,5.4,13.1,12.7
		C557.3,222.8,551.3,228.2,544.2,228.2 M554,349.7h-19.5v-98.4H554V349.7z"/>
	<polygon fill="#D50057" points="608,294.1 608.6,294.1 649.9,251.3 676.1,251.3 630,295.9 680,349.7 653,349.7 608.6,298.6 
		608,298.6 608,349.7 588.5,349.7 588.5,192.7 608,192.7 	"/>
	<rect x="697.9" y="192.7" fill="#D50057" width="19.5" height="157"/>
	<path fill="#D50057" d="M812.7,286c0-14.5-9.8-21.6-24.3-21.6c-11,0-21.4,4.8-28,11.4L750,263.3c9.6-9.1,24.3-14.7,40.3-14.7
		c28.2,0,41.1,16.8,41.1,38.6v43c0,6.6,0.4,14.7,1.5,19.5h-17.6c-1-4.4-1.7-9.6-1.7-14.1h-0.6c-7.1,10.6-18.3,16.6-33,16.6
		c-15.6,0-35.7-7.7-35.7-30.3c0-29.7,35.3-33.2,68.5-33.2V286z M807.9,302.8c-19.3,0-43.8,2.1-43.8,18.7c0,11.6,10.4,15.4,20.1,15.4
		c18.3,0,28.4-12.2,28.4-28.9v-5.2H807.9z"/>
	<rect x="864.4" y="192.7" fill="#D50057" width="19.5" height="157"/>
	<rect x="35.6" y="131.5" fill="#D50057" width="142.2" height="25.1"/>
	<rect x="35.6" y="380.3" fill="#D50057" width="142.2" height="25.1"/>
	<path fill="#D50057" d="M106.6,115.1c-31.4,0-57-25.6-57-57s25.6-57,57-57c31.4,0,57,25.6,57,57S138,115.1,106.6,115.1 M106.6,26.2
		c-17.6,0-31.9,14.3-31.9,31.9S89.1,90,106.6,90c17.6,0,31.9-14.3,31.9-31.9S124.2,26.2,106.6,26.2"/>
	<path fill="#D50057" d="M106.7,367L106.7,367L106.7,367L17,277.7c-11-11-17-25.5-17-41c0-15.5,6.1-30.1,17-41
		c22.7-22.6,59.5-22.6,82.2,0l7.4,7.4l7.4-7.4c22.7-22.6,59.5-22.6,82.2,0c11,11,17,25.5,17,41c0,15.5-6.1,30.1-17,41L106.7,367z
		 M58.1,202.4c-8.8,0-17.6,3.3-24.4,10c-6.5,6.5-10.1,15.1-10.1,24.2c0,9.1,3.6,17.8,10.1,24.2l72.9,72.6l72.9-72.6
		c6.5-6.5,10.1-15.1,10.1-24.2c0-9.1-3.6-17.8-10.1-24.2c-13.4-13.4-35.3-13.4-48.7,0l-24.2,24.1l-24.2-24.1
		C75.8,205.8,67,202.4,58.1,202.4"/>
</g>
</svg>
