<svg version="1.1" xmlns="http://www.w3.org/2000/svg" xmlns:xlink="http://www.w3.org/1999/xlink" x="0px" y="0px" viewBox="0 0 1000 1000"
	 enable-background="new 0 0 1000 1000" xml:space="preserve">
<g>
	<path fill="#D88F9C" d="M1000,500c0,276.1-223.9,500-500,500C223.9,1000,0,776.1,0,500C0,223.9,223.9,0,500,0
		C776.1,0,1000,223.9,1000,500"/>
	<path class="foreground" fill="#A26B75" d="M416.5,261.9H257.8c-10.3,0-18.6,8.4-18.6,18.6V622c0,10.3,8.4,18.6,18.6,18.6h211.5
		c10.3,0,18.6-8.4,18.6-18.6V333.4C488,293.9,456,261.9,416.5,261.9 M428.5,455.2H298.6c-13,0-21.6-5.2-21.6-12.9
		c0-7.7,8.7-12.9,21.6-12.9h129.9c13,0,21.6,5.2,21.6,12.9C450.2,450,441.5,455.2,428.5,455.2 M428.5,403.6H298.6
		c-13,0-21.6-5.2-21.6-12.9c0-7.8,8.7-12.9,21.6-12.9h129.9c13,0,21.6,5.2,21.6,12.9C450.2,398.5,441.5,403.6,428.5,403.6
		 M428.5,352.1H298.6c-13,0-21.6-5.2-21.6-12.9c0-7.7,8.7-12.9,21.6-12.9h129.9c13,0,21.6,5.2,21.6,12.9
		C450.2,346.9,441.5,352.1,428.5,352.1"/>
	<path class="foreground" fill="#A26B75" d="M744.9,261.9H586.3c-39.5,0-71.5,32-71.5,71.5V622c0,10.3,8.4,18.6,18.6,18.6H745
		c10.3,0,18.6-8.4,18.6-18.6V280.5C763.6,270.2,755.2,261.9,744.9,261.9 M704.1,455.2H574.2c-13,0-21.6-5.2-21.6-12.9
		c0-7.7,8.7-12.9,21.6-12.9h129.9c13,0,21.6,5.2,21.6,12.9C725.8,450,717.1,455.2,704.1,455.2 M704.1,403.6H574.2
		c-13,0-21.6-5.2-21.6-12.9c0-7.8,8.7-12.9,21.6-12.9h129.9c13,0,21.6,5.2,21.6,12.9C725.8,398.5,717.1,403.6,704.1,403.6
		 M704.1,352.1H574.2c-13,0-21.6-5.2-21.6-12.9c0-7.7,8.7-12.9,21.6-12.9h129.9c13,0,21.6,5.2,21.6,12.9
		C725.8,346.9,717.1,352.1,704.1,352.1"/>
	<path class="foreground" fill="#A26B75" d="M479.9,665.6h-11.1H237.4c-12.8,0-23.1-10.4-23.1-23.2V318.8c0-12.8-10.4-23.2-23.2-23.2S168,306,168,318.8
		v362.4c0,12.8,10.3,23.2,23.1,23.2h250C462.5,704.4,479.9,687,479.9,665.6"/>
	<path class="foreground" fill="#A26B75" d="M811.6,295.6c-12.8,0-23.1,10.4-23.1,23.2v323.6c0,12.8-10.4,23.2-23.1,23.2H514.8
		c0,21.4,17.4,38.8,38.8,38.8h258.1c12.8,0,23.1-10.4,23.1-23.2V318.8C834.8,306,824.4,295.6,811.6,295.6"/>
</g>
</svg>
