<svg version="1.1" xmlns="http://www.w3.org/2000/svg" xmlns:xlink="http://www.w3.org/1999/xlink" x="0px" y="0px" viewBox="0 0 1000 1000"
	 enable-background="new 0 0 1000 1000" xml:space="preserve">
<g>
	<path fill="#BC9F77" d="M1000,500c0,276.1-223.9,500-500,500C223.9,1000,0,776.1,0,500C0,223.9,223.9,0,500,0
		C776.1,0,1000,223.9,1000,500"/>
	<path class="foreground" fill="#8D7759" d="M749.9,250.1H250.1v159h499.8V250.1z M395.7,375.2H286.2V357h9.1v-27.4c0-25.2,20.4-45.6,45.6-45.6
		c25.2,0,45.6,20.4,45.6,45.6V357h9.1V375.2z M554.8,375.2H445.3V357h9.1v-27.4c0-25.2,20.4-45.6,45.6-45.6
		c25.2,0,45.6,20.4,45.6,45.6V357h9.1V375.2z M713.8,375.2H604.3V357h9.1v-27.4c0-25.2,20.4-45.6,45.6-45.6
		c25.2,0,45.6,20.4,45.6,45.6V357h9.1V375.2z"/>
	<rect class="foreground" x="250.1" y="204.6" fill="#8D7759" width="499.8" height="22.7"/>
	<path class="foreground" fill="#8D7759" d="M443.2,659c0-27,19-50.2,45.4-55.7v-1.1h22.7v1.1c26.5,5.4,45.5,28.7,45.4,55.7v136.3h193.1V431.8H250.1
		v363.5h193.1V659z M396.7,568.1H285.2v-18.6h9.3v-74.3c0-5.1,4.2-9.3,9.3-9.3h74.4c5.1,0,9.3,4.2,9.3,9.3v74.3h9.3V568.1z
		 M555.8,568.1H444.2v-18.6h9.3v-74.3c0-5.1,4.2-9.3,9.3-9.3h74.3c5.1,0,9.3,4.2,9.3,9.3v74.3h9.3V568.1z M714.8,568.1H603.3v-18.6
		h9.3v-74.3c0-5.1,4.2-9.3,9.3-9.3h74.3c5.1,0,9.3,4.2,9.3,9.3v74.3h9.3V568.1z M396.7,715.8H285.2v-18.6h9.3v-74.4
		c0-5.1,4.2-9.3,9.3-9.3h74.4c5.1,0,9.3,4.2,9.3,9.3v74.4h9.3V715.8z M714.8,715.8H603.3v-18.6h9.3v-74.4c0-5.1,4.2-9.3,9.3-9.3
		h74.3c5.1,0,9.3,4.2,9.3,9.3v74.4h9.3V715.8z"/>
</g>
</svg>
