<?xml version="1.0" encoding="utf-8"?>
<!-- Generator: Adobe Illustrator 18.0.0, SVG Export Plug-In . SVG Version: 6.00 Build 0)  -->
<!DOCTYPE svg PUBLIC "-//W3C//DTD SVG 1.1//EN" "http://www.w3.org/Graphics/SVG/1.1/DTD/svg11.dtd" [
	<!ENTITY ns_extend "http://ns.adobe.com/Extensibility/1.0/">
	<!ENTITY ns_ai "http://ns.adobe.com/AdobeIllustrator/10.0/">
	<!ENTITY ns_graphs "http://ns.adobe.com/Graphs/1.0/">
	<!ENTITY ns_vars "http://ns.adobe.com/Variables/1.0/">
	<!ENTITY ns_imrep "http://ns.adobe.com/ImageReplacement/1.0/">
	<!ENTITY ns_sfw "http://ns.adobe.com/SaveForWeb/1.0/">
	<!ENTITY ns_custom "http://ns.adobe.com/GenericCustomNamespace/1.0/">
	<!ENTITY ns_adobe_xpath "http://ns.adobe.com/XPath/1.0/">
]>
<svg version="1.1" id="Layer_1" xmlns:x="&ns_extend;" xmlns:i="&ns_ai;" xmlns:graph="&ns_graphs;"
	 xmlns="http://www.w3.org/2000/svg" xmlns:xlink="http://www.w3.org/1999/xlink" x="0px" y="0px" viewBox="0 0 1000 1000"
	 enable-background="new 0 0 1000 1000" xml:space="preserve">
<metadata>
	<sfw  xmlns="&ns_sfw;">
		<slices></slices>
		<sliceSourceBounds  height="623.3" width="514.7" x="242.7" y="-817.3" bottomLeftOrigin="true"></sliceSourceBounds>
	</sfw>
</metadata>
<path fill-rule="evenodd" clip-rule="evenodd" fill="#000000" d="M556.3,614.3c-45.3,14.3-95.8,16.2-145.3,2.6
	c-125-34.5-195.9-155-158.2-269.2c37.7-114.2,169.6-178.9,294.6-144.5c125,34.4,195.9,154.9,158.2,269.2
	c-13.3,40.3-38.3,74.4-70.6,100.1l115.8,173.1c13.7,23.3,4.8,52.3-19.8,65.8l-1.1,0.5l-1.1,0.6c-25.9,11.3-57.2,2.1-70.9-21.2
	L556.3,614.3z M426.7,569.1c-96.2-26.5-150.7-119.2-121.7-207c29-87.9,130.5-137.6,226.7-111.2c96.2,26.5,150.7,119.2,121.7,207
	C624.4,545.8,522.9,595.6,426.7,569.1"/>
</svg>
