<svg version="1.1" xmlns="http://www.w3.org/2000/svg" xmlns:xlink="http://www.w3.org/1999/xlink" x="0px" y="0px" viewBox="0 0 1000 1000"
	 enable-background="new 0 0 1000 1000" xml:space="preserve">
<g>
	<path fill="#AB525B" d="M1000,500c0,276.1-223.9,500-500,500C223.9,1000,0,776.1,0,500C0,223.9,223.9,0,500,0
		C776.1,0,1000,223.9,1000,500"/>
	<path class="foreground" fill="#803E44" d="M667.6,757.9H332.4c-15.5,0-25.8,10.3-25.8,25.8v25.8h386.8v-25.8C693.4,768.2,683.1,757.9,667.6,757.9"/>
	<path class="foreground" fill="#803E44" d="M358.2,719.2v-77.4c0-7.7-5.2-12.9-12.9-12.9s-12.9,5.2-12.9,12.9v77.4c0,7.8,5.2,12.9,12.9,12.9
		S358.2,726.9,358.2,719.2"/>
	<path class="foreground" fill="#803E44" d="M409.8,719.2v-77.4c0-7.7-5.2-12.9-12.9-12.9c-7.7,0-12.9,5.2-12.9,12.9v77.4c0,7.8,5.2,12.9,12.9,12.9
		C404.6,732.1,409.8,726.9,409.8,719.2"/>
	<path class="foreground" fill="#803E44" d="M461.3,719.2v-77.4c0-7.7-5.2-12.9-12.9-12.9s-12.9,5.2-12.9,12.9v77.4c0,7.8,5.2,12.9,12.9,12.9
		S461.3,726.9,461.3,719.2"/>
	<path class="foreground" fill="#803E44" d="M512.9,719.2v-77.4c0-7.7-5.2-12.9-12.9-12.9c-7.7,0-12.9,5.2-12.9,12.9v77.4c0,7.8,5.2,12.9,12.9,12.9
		C507.7,732.1,512.9,726.9,512.9,719.2"/>
	<path class="foreground" fill="#803E44" d="M564.5,719.2v-77.4c0-7.7-5.2-12.9-12.9-12.9s-12.9,5.2-12.9,12.9v77.4c0,7.8,5.2,12.9,12.9,12.9
		S564.5,726.9,564.5,719.2"/>
	<path class="foreground" fill="#803E44" d="M616,719.2v-77.4c0-7.7-5.2-12.9-12.9-12.9c-7.7,0-12.9,5.2-12.9,12.9v77.4c0,7.8,5.2,12.9,12.9,12.9
		C610.9,732.1,616,726.9,616,719.2"/>
	<path class="foreground" fill="#803E44" d="M667.6,719.2v-77.4c0-7.7-5.2-12.9-12.9-12.9s-12.9,5.2-12.9,12.9v77.4c0,7.8,5.2,12.9,12.9,12.9
		S667.6,726.9,667.6,719.2"/>
	<path class="foreground" fill="#803E44" d="M409.8,319.5c14.2,0,25.8-11.5,25.8-25.8h38.7l12.9,20.6l-51.6,82.5h25.8L500,335l38.7,61.9h25.8
		l-51.6-82.5l12.9-20.6h38.7c0,14.3,11.6,25.8,25.8,25.8h51.6l51.6-103.2H616c0-14.2-11.5-25.8-25.8-25.8h-25.8L500,293.7
		l-64.5-103.1h-25.8c-14.2,0-25.8,11.5-25.8,25.8h-77.4l51.6,103.2H409.8z"/>
	<polygon class="foreground" fill="#803E44" points="667.6,422.6 667.6,474.2 590.2,474.2 590.2,422.6 538.7,422.6 538.7,474.2 461.3,474.2 
		461.3,422.6 409.8,422.6 409.8,474.2 332.4,474.2 332.4,422.6 280.8,422.6 280.8,525.8 719.2,525.8 719.2,422.6 	"/>
	<path class="foreground" fill="#803E44" d="M306.6,577.4c0,15.5,10.3,25.8,25.8,25.8h330.1h5.1c15.5,0,25.8-10.3,25.8-25.8v-25.8H306.6V577.4z"/>
</g>
</svg>
