<svg version="1.1" xmlns="http://www.w3.org/2000/svg" xmlns:xlink="http://www.w3.org/1999/xlink" x="0px" y="0px" viewBox="0 0 1000 1000"
	 enable-background="new 0 0 1000 1000" xml:space="preserve">
<g>
	<path fill="#A990C0" d="M1000,500c0,276.1-223.9,500-500,500C223.9,1000,0,776.1,0,500C0,223.9,223.9,0,500,0
		C776.1,0,1000,223.9,1000,500"/>
	<path class="foreground" fill="#7F6C90" d="M832.9,429.4c-59.9,34.6-126.4,23.1-167.7,12c-41.3-11.1-104.7-34.4-139.3-94.3
		c-34.6-59.9-170.3,387.8,45.2,445.5C786.6,850.3,892.8,394.8,832.9,429.4 M560.5,481.9c46.4-0.2,36.7,52,36.7,52
		c-35.2,5.3-86.6-23.2-86.6-23.2S514.1,482.1,560.5,481.9 M590.1,721.8c-83-20.7-70.2-121.6-62-103.6c8.3,18.1,47.5,39.6,77,47.5
		c29.5,7.9,74.2,8.8,90.4-2.6C711.7,651.6,672.3,745.4,590.1,721.8 M764.4,578.7c0,0-58.8-1-86.6-23.2c0,0,17.7-50.1,57.8-26.7
		C775.8,552.2,764.4,578.7,764.4,578.7"/>
	<path class="foreground" fill="#7F6C90" d="M434.5,559.6c-8.5,1.5-16.9,3.2-24.3,5.2c-29.5,7.9-69.7,25.8-79.4,38.6c-9.7,12.7-13.2-53.4,69.7-74.6
		c13.7-3.8,25.8-5.3,36.6-5.2c0.6-5.8,1.1-11.6,1.9-17.5c2.4-18.1,7.4-46.6,15-75.7c-37.8,4.7-41.5-42.2-41.5-42.2
		c16.1-7.1,38.2-7.1,56.4-5.4c12.8-33.2,29.3-58.9,49.4-58.9c9.3,0,17.7,5.3,23,14.4c1.7,3,3.7,5.7,5.6,8.5
		c-17.4-78.7-46.6-133.5-60.2-109.9c-34.6,59.9-97.9,83.2-139.2,94.2c-41.3,11.1-107.8,22.6-167.7-12
		c-59.9-34.6,46.3,421,261.8,363.2c1.8-0.5,3.6-1.1,5.4-1.6C437.1,645.8,432.7,605.2,434.5,559.6 M297.9,472.7
		c-44.9,11.8-55.6-14.9-55.6-14.9s42.3-40.9,77.6-44.8C319.9,412.9,342.8,460.8,297.9,472.7"/>
</g>
</svg>
