<svg version="1.1" xmlns="http://www.w3.org/2000/svg" xmlns:xlink="http://www.w3.org/1999/xlink" x="0px" y="0px" viewBox="0 0 1000 1000"
	 enable-background="new 0 0 1000 1000" xml:space="preserve">
<g>
	<path fill="#74CCE5" d="M1000,500c0,276.1-223.9,500-500,500C223.9,1000,0,776.1,0,500C0,223.9,223.9,0,500,0
		C776.1,0,1000,223.9,1000,500"/>
	<path class="foreground" fill="#5799AC" d="M384.9,718.3c-13.9,21.2-21.8,47-21.8,74.1c0,11.9,9.9,21.8,21.8,21.8h230.2c11.9,0,21.8-9.9,21.8-21.8
		c0-27.1-7.9-52.9-21.8-74.1c43-22.5,78.1-56.9,101.2-99.2h-432C306.8,661.4,342.6,695.8,384.9,718.3"/>
	<path class="foreground" fill="#5799AC" d="M749.4,531.7H527.1v-76.1c0-22.5,18.5-41,41-41c22.5,0,41,18.5,41,41c0,15.2,12.6,27.1,27.1,27.1
		c15.2,0,27.1-12.6,27.1-27.1c0-52.9-43-95.9-95.9-95.9c-15.2,0-28.4,4-41,9.9v-64.8c0-17.2,7.3-33.7,19.2-45
		c11.2-11.9,27.8-19.2,45-19.2c35.1,0,64.2,28.5,64.2,64.2c0,15.2,11.9,27.1,27.1,27.1c15.2,0,27.1-12.6,27.1-27.1
		c0-65.5-53.6-119.1-119.1-119.1c-37,0-69.5,17.2-91.3,43.7c-21.8-26.5-54.3-43.7-91.3-43.7c-65.5,0-118.4,53.6-118.4,119.1
		c0,15.2,11.9,27.1,27.1,27.1c15.2,0,27.1-12.6,27.1-27.1c0-35.1,28.4-64.2,63.5-64.2c35.1,0,64.1,28.5,64.1,64.2v64.8
		c-12.6-5.9-26.5-9.2-41-9.2c-52.9,0-95.9,43-95.9,95.9c0,15.2,12.6,27.1,27.1,27.1c15.2,0,27.1-12.5,27.1-27.1
		c0-22.5,18.5-41,41-41s41,18.5,41,41v76.7H250.6c-15.2,0-27.1,12.6-27.1,27.1c0,14.5,12.6,27.1,27.1,27.1h498.8
		c15.2,0,27.1-12.6,27.1-27.1C776.5,545.7,764.6,531.7,749.4,531.7"/>
</g>
</svg>
