<svg version="1.1" xmlns="http://www.w3.org/2000/svg" xmlns:xlink="http://www.w3.org/1999/xlink" x="0px" y="0px" viewBox="0 0 1000 1000"
	 enable-background="new 0 0 1000 1000" xml:space="preserve">
<g>
	<circle fill="#AC765A" cx="500" cy="500" r="500"/>
	<path class="foreground" fill="#805342" d="M731.3,355.7H268.7c-54.7,0-87.1,37.3-89.6,72.1c0,24.9,12.4,57.2,59.7,62.2c22.4,2.5,39.8-2.5,47.3-14.9
		c7.5-14.9,10-29.9,0-44.8c-5-10-14.9-17.4-24.9-17.4c-7.5,0-14.9,2.5-19.9,10c-2.5,5-5,12.4-2.5,19.9c2.5,5,0,12.4-7.5,14.9
		c-5,2.5-12.4,0-14.9-7.5c-5-12.4-5-29.9,5-39.8c10-12.4,24.9-19.9,39.8-19.9c19.9,0,37.3,12.4,44.8,29.9c5,7.5,5,14.9,7.5,24.9
		h368.2c0-7.5,2.5-17.4,7.5-24.9c7.5-17.4,24.9-29.9,44.8-29.9c14.9,0,29.9,7.5,39.8,19.9c7.5,12.4,10,27.4,5,39.8l0,0
		c-2.5,5-10,10-14.9,7.5l0,0c-5-2.5-10-10-7.5-14.9c2.5-5,2.5-12.4-2.5-19.9c-5-7.5-12.4-10-19.9-10c-12.4,0-22.4,7.5-27.4,17.4
		c-7.5,14.9-7.5,32.3,0,44.8c10,12.4,24.9,17.4,47.3,14.9l0,0c44.8-5,59.7-37.3,59.7-62.2C818.4,393,786.1,355.7,731.3,355.7z"/>
	<path class="foreground" fill="#805342" d="M355.7,594.5c-27.4,0-52.2,24.9-52.2,54.7v136.8h102V649.3C405.5,619.4,383.1,594.5,355.7,594.5"/>
	<path class="foreground" fill="#805342" d="M368.2,500L368.2,500c-29.9,0-54.7-24.9-54.7-54.7V408h111.9v37.3C425.4,475.1,398,500,368.2,500"/>
	<path class="foreground" fill="#805342" d="M500,500L500,500c-29.9,0-54.7-24.9-54.7-54.7V408h111.9v37.3C554.7,475.1,529.9,500,500,500"/>
	<path class="foreground" fill="#805342" d="M631.8,500L631.8,500c-29.9,0-54.7-24.9-54.7-54.7V408h111.9v37.3C686.6,475.1,661.7,500,631.8,500"/>
	<path class="foreground" fill="#805342" d="M783.6,524.9L783.6,524.9C781.1,524.9,781.1,524.9,783.6,524.9c-2.5,0-2.5,0-2.5,0h-2.5c0,0,0,0-2.5,0
		h-2.5h-2.5c0,0,0,0-2.5,0h-2.5l0,0h-2.5l0,0l0,0h-2.5l0,0h-2.5h-2.5c0,0,0,0-2.5,0h-2.5l0,0c-19.9-2.5-37.3-14.9-49.8-29.9l0,0
		c0,0,0,0,0-2.5c0,0,0-2.5-2.5-2.5l0,0l0,0l0,0l0,0c0,0,0,2.5-2.5,2.5c0,0,0,0,0,2.5l0,0c-12.4,14.9-29.9,27.4-49.8,29.9l0,0h-2.5
		c0,0,0,0-2.5,0h-2.5h-2.5l0,0h-2.5l0,0l0,0h-2.5l0,0h-2.5h-2.5c0,0,0,0-2.5,0h-2.5l0,0c-19.9-2.5-37.3-14.9-49.8-29.9l0,0
		c0,0,0,0,0-2.5c0,0,0-2.5-2.5-2.5l0,0l0,0l0,0l0,0c0,0,0,2.5-2.5,2.5c0,0,0,0,0,2.5l0,0c0,0,0,0,0,2.5l0,0
		c-12.4,14.9-27.4,24.9-47.3,29.9l0,0h-2.5c0,0,0,0-2.5,0h-2.5H510l0,0h-2.5l0,0l0,0H505l0,0h-2.5H500c0,0,0,0-2.5,0H495l0,0
		c-19.9-2.5-37.3-14.9-49.8-29.9l0,0c0,0,0,0,0-2.5c0,0,0-2.5-2.5-2.5l0,0l0,0l0,0l0,0c0,0,0,2.5-2.5,2.5c0,0,0,0,0,2.5l0,0
		c0,0,0,0,0,2.5l0,0c-12.4,14.9-27.4,24.9-47.3,29.9l0,0h-2.5c0,0,0,0-2.5,0h-2.5h-2.5l0,0h-2.5l0,0l0,0h-2.5l0,0h-2.5h-2.5
		c0,0,0,0-2.5,0h-2.5l0,0c-19.9-2.5-37.3-14.9-49.8-29.9l0,0c0,0,0,0,0-2.5c0,0,0-2.5-2.5-2.5l0,0l0,0l0,0l0,0c0,0,0,2.5-2.5,2.5
		c0,0,0,0,0,2.5l0,0c0,0,0,0,0,2.5l0,0c-12.4,14.9-27.4,24.9-47.3,29.9l0,0h-2.5c0,0,0,0-2.5,0h-2.5h-2.5l0,0h-2.5l0,0l0,0h-2.5
		l0,0h-2.5c0,0,0,0-2.5,0h-2.5c0,0,0,0-2.5,0c0,0,0,0-2.5,0h-2.5l0,0h-2.5l0,0V791h64.7V649.3c0-42.3,34.8-77.1,74.6-77.1
		c42.3,0,74.6,34.8,74.6,77.1V791h355.7L783.6,524.9C783.6,522.4,783.6,524.9,783.6,524.9z M746.3,728.9H482.6v-99.5
		c0-27.4,22.4-49.8,49.8-49.8h164.2c27.4,0,49.8,22.4,49.8,49.8L746.3,728.9L746.3,728.9z"/>
<path class="foreground" fill="#805342" d="M271.1,323.4h455.2v-42.3h-102c-5,0-10-2.5-10-7.5c-10-24.9-24.9-44.8-44.8-59.7
	c-19.9-14.9-42.3-22.4-67.2-22.4s-47.3,7.5-67.2,22.4c-19.9,14.9-34.8,34.8-44.8,59.7c-2.5,5-7.5,7.5-10,7.5H276.1v42.3H271.1z"/>
</g>
</svg>
