<svg version="1.1" xmlns="http://www.w3.org/2000/svg" xmlns:xlink="http://www.w3.org/1999/xlink" x="0px" y="0px" viewBox="0 0 1000 1000"
	 enable-background="new 0 0 1000 1000" xml:space="preserve">
<g>
	<path fill="#E0AC71" d="M1000,500c0,276.1-223.9,500-500,500C223.9,1000,0,776.1,0,500C0,223.9,223.9,0,500,0
		C776.1,0,1000,223.9,1000,500"/>
	<path class="foreground" fill="#A88155" d="M543.2,571H623v237.6c0,14.8,12,26.8,26.8,26.8c14.8,0,26.8-12,26.8-26.8V571V404.9V164.6
		C555.9,164.6,543.2,571,543.2,571"/>
	<path class="foreground" fill="#A88155" d="M488.8,358.1h-28.2V164.6h-27.7v193.5h-28.2V164.6h-27.7v193.5h-28.2V164.6h-25.2v193.3
		c0,44.5,30.5,81.7,71.8,92.2l-20.2,358c0,15.1,31.3,27.3,43.6,27.3c12.3,0,43.6-12.2,43.6-27.3l-20.2-358
		c41.2-10.4,71.8-47.7,71.8-92.2V164.6h-25.2L488.8,358.1L488.8,358.1z"/>
</g>
</svg>
